<?xml version="1.0" encoding="UTF-8" standalone="no"?>
<!-- Uploaded to: SVG Repo, www.svgrepo.com, Generator: SVG Repo Mixer Tools -->

<svg
   fill="#000000"
   height="800px"
   width="800px"
   version="1.1"
   id="Capa_1"
   viewBox="0 0 203.096 203.096"
   xml:space="preserve"
   sodipodi:docname="password-svgrepo-com.svg"
   inkscape:version="1.4.2 (f4327f4, 2025-05-13)"
   xmlns:inkscape="http://www.inkscape.org/namespaces/inkscape"
   xmlns:sodipodi="http://sodipodi.sourceforge.net/DTD/sodipodi-0.dtd"
   xmlns="http://www.w3.org/2000/svg"
   xmlns:svg="http://www.w3.org/2000/svg"><defs
   id="defs2" /><sodipodi:namedview
   id="namedview2"
   pagecolor="#ffffff"
   bordercolor="#000000"
   borderopacity="0.25"
   inkscape:showpageshadow="2"
   inkscape:pageopacity="0.0"
   inkscape:pagecheckerboard="0"
   inkscape:deskcolor="#d1d1d1"
   inkscape:zoom="0.504375"
   inkscape:cx="417.3482"
   inkscape:cy="304.33705"
   inkscape:window-width="1920"
   inkscape:window-height="1009"
   inkscape:window-x="1072"
   inkscape:window-y="760"
   inkscape:window-maximized="1"
   inkscape:current-layer="Capa_1" />
<g
   id="g2">
	<path
   d="M153.976,73.236h-3.308V49.115C150.669,22.033,128.634,0,101.549,0C74.465,0,52.43,22.033,52.43,49.115v24.121H49.12   c-9.649,0-17.5,7.851-17.5,17.5v94.859c0,9.649,7.851,17.5,17.5,17.5h104.856c9.649,0,17.5-7.851,17.5-17.5V90.736   C171.476,81.087,163.626,73.236,153.976,73.236z M67.43,49.115C67.43,30.304,82.736,15,101.549,15   c18.813,0,34.119,15.304,34.119,34.115v24.121H67.43V49.115z M156.476,185.596c0,1.355-1.145,2.5-2.5,2.5H49.12   c-1.355,0-2.5-1.145-2.5-2.5V90.736c0-1.355,1.145-2.5,2.5-2.5H59.93h83.238h10.808c1.355,0,2.5,1.145,2.5,2.5V185.596z"
   id="path1" />
	<path
   d="M101.547,116.309c-4.142,0-7.5,3.357-7.5,7.5v28.715c0,4.143,3.358,7.5,7.5,7.5c4.142,0,7.5-3.357,7.5-7.5v-28.715   C109.047,119.666,105.689,116.309,101.547,116.309z"
   id="path2" />
</g>
</svg>
